<svg xmlns="http://www.w3.org/2000/svg" xmlns:xlink="http://www.w3.org/1999/xlink" viewBox="0 0 512 500" width="512" height="512">
  <defs>
    <clipPath id="shape">
      <path d="M256 470 C130 370 10 300 10 190 C10 100 80 30 170 30 C220 30 256 60 256 60 C256 60 292 30 342 30 C432 30 502 100 502 190 C502 300 382 370 256 470Z"/>
    </clipPath>
  </defs>
  <g clip-path="url(#shape)">
    <svg viewBox="0 0 640 480" width="512" height="512" preserveAspectRatio="xMidYMid slice">
      
  <path fill="#007a5e" d="M0 0h213.3v480H0z"/>
  <path fill="#ce1126" d="M213.3 0h213.4v480H213.3z"/>
  <path fill="#fcd116" d="M426.7 0H640v480H426.7z"/>
  <g fill="#fcd116" transform="translate(320 240)scale(7.1111)">
    <g id="cm-b">
      <path id="cm-a" d="M0-8-2.5-.4 1.3.9z"/>
      <use xlink:href="#cm-a" width="100%" height="100%" transform="scale(-1 1)"/>
    </g>
    <use xlink:href="#cm-b" width="100%" height="100%" transform="rotate(72)"/>
    <use xlink:href="#cm-b" width="100%" height="100%" transform="rotate(144)"/>
    <use xlink:href="#cm-b" width="100%" height="100%" transform="rotate(-144)"/>
    <use xlink:href="#cm-b" width="100%" height="100%" transform="rotate(-72)"/>
  </g>


    </svg>
  </g>
</svg>